<svg width="34" height="34" viewBox="0 0 34 34" fill="none" xmlns="http://www.w3.org/2000/svg">
<path d="M11.3155 4.24341C7.41023 4.24341 4.24331 7.41033 4.24331 11.3156V22.6311C4.24331 26.5363 7.41023 29.7033 11.3155 29.7033H22.631C26.5362 29.7033 29.7032 26.5363 29.7032 22.6311V11.3156C29.7032 7.41033 26.5362 4.24341 22.631 4.24341H11.3155ZM25.4599 7.07228C26.2406 7.07228 26.8743 7.70595 26.8743 8.48672C26.8743 9.26749 26.2406 9.90116 25.4599 9.90116C24.6791 9.90116 24.0454 9.26749 24.0454 8.48672C24.0454 7.70595 24.6791 7.07228 25.4599 7.07228ZM16.9732 9.90116C20.8785 9.90116 24.0454 13.0681 24.0454 16.9733C24.0454 20.8786 20.8785 24.0455 16.9732 24.0455C13.068 24.0455 9.90106 20.8786 9.90106 16.9733C9.90106 13.0681 13.068 9.90116 16.9732 9.90116ZM16.9732 12.73C15.8478 12.73 14.7685 13.1771 13.9728 13.9729C13.177 14.7686 12.7299 15.8479 12.7299 16.9733C12.7299 18.0987 13.177 19.178 13.9728 19.9738C14.7685 20.7696 15.8478 21.2167 16.9732 21.2167C18.0986 21.2167 19.1779 20.7696 19.9737 19.9738C20.7695 19.178 21.2166 18.0987 21.2166 16.9733C21.2166 15.8479 20.7695 14.7686 19.9737 13.9729C19.1779 13.1771 18.0986 12.73 16.9732 12.73Z" fill="#C171D6"/>
</svg>
