<svg width="266" height="111" viewBox="0 0 266 111" fill="none" xmlns="http://www.w3.org/2000/svg">
<path d="M0 46.0075H17.017L30.7136 74.6929L35.1408 86.1947L39.568 74.6929L53.1262 46.0075H69.7282L36.3859 109.614H33.4806L0 46.0075Z" fill="#303030"/>
<path d="M107.675 111C100.112 111 93.7938 109.522 88.7209 106.566C83.6481 103.517 79.9127 99.4981 77.5146 94.5094C75.1166 89.4282 73.9175 83.8851 73.9175 77.8801C73.9175 71.1361 75.301 65.2235 78.068 60.1423C80.9273 55.0612 84.8472 51.181 89.8277 48.5019C94.8083 45.7303 100.435 44.3446 106.706 44.3446C116.483 44.3446 123.723 47.0699 128.427 52.5206C133.223 57.8789 135.621 65.4544 135.621 75.2472C135.621 77.7416 135.483 80.3283 135.206 83.0075H89.551C90.5656 88.6429 92.5486 92.7079 95.5001 95.2022C98.5438 97.6966 102.74 98.9438 108.09 98.9438C112.517 98.9438 116.16 98.5743 119.019 97.8352C121.879 97.0961 124.507 96.0799 126.905 94.7865L131.471 105.457C129.165 106.935 126.029 108.228 122.063 109.337C118.097 110.446 113.301 111 107.675 111ZM121.095 72.6142C121.187 66.8864 119.942 62.8677 117.359 60.558C114.777 58.156 111.087 56.955 106.291 56.955C96.6069 56.955 91.0268 62.1748 89.551 72.6142H121.095Z" fill="#303030"/>
<path d="M150.871 46.0075H165.813V58.4794C167.289 54.2297 169.687 50.8115 173.007 48.2247C176.328 45.6379 180.109 44.3446 184.352 44.3446C187.303 44.3446 189.332 44.6217 190.439 45.176L188.364 60.2809C187.534 59.7266 185.735 59.4494 182.968 59.4494C178.633 59.4494 174.667 60.8352 171.07 63.6067C167.565 66.3783 165.813 70.8127 165.813 76.9101V109.614H150.871V46.0075Z" fill="#303030"/>
<path d="M231.027 111C223.464 111 217.146 109.522 212.074 106.566C207.001 103.517 203.265 99.4981 200.867 94.5094C198.469 89.4282 197.27 83.8851 197.27 77.8801C197.27 71.1361 198.654 65.2235 201.421 60.1423C204.28 55.0612 208.2 51.181 213.18 48.5019C218.161 45.7303 223.787 44.3446 230.059 44.3446C239.836 44.3446 247.076 47.0699 251.78 52.5206C256.576 57.8789 258.974 65.4544 258.974 75.2472C258.974 77.7416 258.836 80.3283 258.559 83.0075H212.904C213.918 88.6429 215.901 92.7079 218.853 95.2022C221.896 97.6966 226.093 98.9438 231.443 98.9438C235.87 98.9438 239.513 98.5743 242.372 97.8352C245.231 97.0961 247.86 96.0799 250.258 94.7865L254.824 105.457C252.518 106.935 249.382 108.228 245.416 109.337C241.45 110.446 236.654 111 231.027 111ZM244.447 72.6142C244.54 66.8864 243.294 62.8677 240.712 60.558C238.129 58.156 234.44 56.955 229.644 56.955C219.96 56.955 214.379 62.1748 212.904 72.6142H244.447Z" fill="#303030"/>
<path d="M231.689 31.7341L252.857 0L266 8.45318L241.789 37.4157L231.689 31.7341Z" fill="#C171D6"/>
</svg>
