<svg width="34" height="32" viewBox="0 0 34 32" fill="none" xmlns="http://www.w3.org/2000/svg">
<path fillRule="evenodd" clipRule="evenodd" d="M28.6605 4.65006C27.1331 3.17011 25.3185 1.99736 23.3211 1.19932C21.3238 0.40128 19.1832 -0.00629029 17.0226 7.33853e-05C7.95499 7.33853e-05 0.573496 7.11292 0.569808 15.8572C0.565797 18.6415 1.32366 21.3772 2.76626 23.7857L0.431885 32L9.15353 29.795C11.5677 31.0616 14.2702 31.7245 17.0159 31.7236H17.0226C26.0894 31.7236 33.4701 24.61 33.4746 15.8665C33.48 13.7812 33.0573 11.7156 32.2308 9.79001C31.4043 7.86441 30.1907 6.1172 28.6605 4.65006ZM17.0226 29.0472H17.0166C14.569 29.0479 12.1658 28.4135 10.057 27.21L9.55771 26.9243L4.38225 28.2329L5.7637 23.3693L5.43844 22.8693C4.06981 20.7709 3.34469 18.3392 3.34746 15.8572C3.34746 8.59077 9.48469 2.67864 17.0277 2.67864C20.6462 2.67238 24.119 4.0583 26.6824 6.53157C29.2458 9.00484 30.6899 12.3629 30.6969 15.8672C30.694 23.1343 24.5597 29.0472 17.0226 29.0472ZM24.5228 19.1765C24.112 18.9779 22.0888 18.0193 21.7142 17.8872C21.3395 17.755 21.0629 17.6886 20.7893 18.0857C20.5156 18.4829 19.7272 19.3715 19.4875 19.6393C19.2478 19.9072 19.0081 19.9365 18.5972 19.7379C18.1864 19.5393 16.861 19.1215 15.2908 17.7715C14.0686 16.7207 13.244 15.4236 13.0043 15.0272C12.7646 14.6308 12.9785 14.4158 13.1843 14.2186C13.3694 14.0408 13.5951 13.7558 13.8009 13.5243C14.0067 13.2929 14.0753 13.1272 14.2117 12.8629C14.3482 12.5986 14.2803 12.3672 14.1778 12.1693C14.0753 11.9715 13.2529 10.0208 12.9107 9.22719C12.5765 8.45434 12.238 8.55934 11.9858 8.5472C11.746 8.53577 11.4695 8.53291 11.1973 8.53291C10.9892 8.53816 10.7845 8.58488 10.596 8.67017C10.4074 8.75546 10.239 8.87749 10.1013 9.02862C9.7244 9.42577 8.66231 10.3858 8.66231 12.3343C8.66231 14.2829 10.1374 16.1686 10.341 16.4329C10.5446 16.6972 13.2396 20.6993 17.3633 22.4157C18.129 22.7333 18.9114 23.0118 19.7073 23.25C20.6919 23.5514 21.588 23.5093 22.2961 23.4072C23.086 23.2936 24.7301 22.4486 25.0715 21.5229C25.413 20.5972 25.4138 19.8043 25.3112 19.6393C25.2087 19.4743 24.9344 19.3743 24.5228 19.1765Z" fill="white" fillOpacity="0.7"/>
</svg>
